# File created by Blade
# Date/Time:  Tue Jan 27 18:55:59 2015
#---------------------------------------------------------
:version 1.10
:name HOM
:units
  mass 1.0
  length 1.000000
  angle deg
:documentation
     Acclaim Skeleton File
:root
   axis xyz
   order TX TY TZ RX RY RZ
   position 0.000000 0.000000 0.000000
   orientation 0 0 0
:bonedata
   begin
      id 1
      name Spine_dum
      direction 0.000000 1.000000 0.000000
      length 5.195262
      axis 0.0 0.0 0.0 xyz
   end
   begin
      id 2
      name LeftUpLeg_dum
      direction 1.000000 0.000000 0.000000
      length 3.351363
      axis 0.0 0.0 0.0 xyz
   end
   begin
      id 3
      name RightUpLeg_dum
      direction -1.000000 0.000000 0.000000
      length 3.351363
      axis 0.0 0.0 0.0 xyz
   end
   begin
      id 4
      name Spine
      direction 0.000000 1.000000 0.000000
      length 0.000000
      axis 0.0 0.0 0.0 xyz
      dof rx ry rz
   end
   begin
      id 5
      name Spine_dum1
      direction 0.000000 1.000000 0.000000
      length 15.653875
      axis 0.0 0.0 0.0 xyz
   end
   begin
      id 6
      name Spine_dum2
      direction 0.000000 1.000000 0.000000
      length 10.329768
      axis 0.0 0.0 0.0 xyz
   end
   begin
      id 7
      name Spine_dum3
      direction 0.000000 1.000000 0.000000
      length 10.329768
      axis 0.0 0.0 0.0 xyz
   end
   begin
      id 8
      name Head
      direction 0.000000 1.000000 0.000000
      length 4.527550
      axis 0.0 0.0 0.0 xyz
      dof rx ry rz
   end
   begin
      id 9
      name LeftShoulder
      direction 1.000000 0.000000 0.000000
      length 6.996006
      axis 0.0 0.0 -90.0 xyz
      dof rx ry rz
   end
   begin
      id 10
      name LeftArm
      direction 1.000000 0.000000 0.000000
      length 10.209302
      axis 0.0 0.0 -90.0 xyz
      dof rx ry rz
   end
   begin
      id 11
      name LeftForeArm
      direction 1.000000 0.000000 0.000000
      length 8.563163
      axis 0.0 0.0 -90.0 xyz
      dof ry rz rx
   end
   begin
      id 12
      name LeftHand
      direction 0.000000 0.000000 0.000000
      length 0.000000
      axis 0.0 0.0 -90.0 xyz
      dof rx ry rz
   end
   begin
      id 13
      name LeftHand_dum1
      direction 0.000000 0.000000 0.000000
      length 0.000000
      axis 0.0 0.0 -90.0 xyz
   end
   begin
      id 14
      name LeftHand_dum2
      direction 1.000000 0.000000 0.000000
      length 3.937000
      axis 0.0 0.0 -90.0 xyz
   end
   begin
      id 15
      name LeftHandThumb1
      direction 0.000000 0.000000 1.000000
      length 3.937000
      axis 0.0 0.0 -90.0 xyz
      dof rx rz ry
   end
   begin
      id 16
      name RightShoulder
      direction -1.000000 0.000000 0.000000
      length 6.996006
      axis 0.0 0.0 90.0 xyz
      dof rx ry rz
   end
   begin
      id 17
      name RightArm
      direction -1.000000 0.000000 0.000000
      length 10.209302
      axis 0.0 0.0 90.0 xyz
      dof rx ry rz
   end
   begin
      id 18
      name RightForeArm
      direction -1.000000 0.000000 0.000000
      length 8.563163
      axis 0.0 0.0 90.0 xyz
      dof ry rz rx
   end
   begin
      id 19
      name RightHand
      direction 0.000000 0.000000 0.000000
      length 0.000000
      axis 0.0 0.0 90.0 xyz
      dof rx ry rz
   end
   begin
      id 20
      name RightHand_dum1
      direction 0.000000 0.000000 0.000000
      length 0.000000
      axis 0.0 0.0 90.0 xyz
   end
   begin
      id 21
      name RightHand_dum2
      direction -1.000000 0.000000 0.000000
      length 3.937000
      axis 0.0 0.0 90.0 xyz
   end
   begin
      id 22
      name RightHandThumb1
      direction 0.000000 0.000000 1.000000
      length 3.937000
      axis 0.0 0.0 90.0 xyz
      dof rx rz ry
   end
   begin
      id 23
      name LeftUpLeg
      direction 0.000000 -1.000000 0.000000
      length 16.346831
      axis 0.0 0.0 0.0 xyz
      dof rx ry rz
   end
   begin
      id 24
      name LeftLeg
      direction 0.000000 -1.000000 0.000000
      length 13.959795
      axis 0.0 0.0 0.0 xyz
      dof rx ry rz
   end
   begin
      id 25
      name LeftFoot
      direction 0.000000 -0.258819 0.965926
      length 5.165550
      axis 15.0 0.0 0.0 xyz
      dof rx ry rz
   end
   begin
      id 26
      name LeftToeBase
      direction 0.000000 0.000000 1.000000
      length 2.952750
      axis 0.0 0.0 0.0 xyz
      dof rx ry rz
   end
   begin
      id 27
      name RightUpLeg
      direction 0.000000 -1.000000 0.000000
      length 16.346831
      axis 0.0 0.0 0.0 xyz
      dof rx ry rz
   end
   begin
      id 28
      name RightLeg
      direction 0.000000 -1.000000 0.000000
      length 13.959795
      axis 0.0 0.0 0.0 xyz
      dof rx ry rz
   end
   begin
      id 29
      name RightFoot
      direction 0.000000 -0.258819 0.965926
      length 5.165550
      axis 15.0 0.0 0.0 xyz
      dof rx ry rz
   end
   begin
      id 30
      name RightToeBase
      direction 0.000000 0.000000 1.000000
      length 2.952750
      axis 0.0 0.0 0.0 xyz
      dof rx ry rz
   end
:hierarchy
   begin
      root Spine_dum LeftUpLeg_dum RightUpLeg_dum
      Spine_dum Spine
      LeftUpLeg_dum LeftUpLeg
      RightUpLeg_dum RightUpLeg
      Spine Spine_dum1 Spine_dum2 Spine_dum3
      Spine_dum1 Head
      Spine_dum2 LeftShoulder
      Spine_dum3 RightShoulder
      LeftShoulder LeftArm
      LeftArm LeftForeArm
      LeftForeArm LeftHand
      LeftHand LeftHand_dum1 LeftHand_dum2
      LeftHand_dum1 LeftHandThumb1
      RightShoulder RightArm
      RightArm RightForeArm
      RightForeArm RightHand
      RightHand RightHand_dum1 RightHand_dum2
      RightHand_dum1 RightHandThumb1
      LeftUpLeg LeftLeg
      LeftLeg LeftFoot
      LeftFoot LeftToeBase
      RightUpLeg RightLeg
      RightLeg RightFoot
      RightFoot RightToeBase
   end

# File created by Blade
# Date/Time:  Tue Jan 27 18:55:50 2015
# Frame Rate: 120.000 fps
#------------------------------------------------------
:FULLY-SPECIFIED
:DEGREES
1344
root -1.993327 32.378934 -4.430665 -1.523793 25.944545 -15.219098
Spine 0.829673 -16.237455 7.988229
Head 16.297791 -16.532232 10.558402
LeftShoulder -12.047016 10.887433 15.556129
LeftArm 20.773263 -23.491939 -73.111590
LeftForeArm -3.922227 -0.000000 82.289646
LeftHand -8.173101 -0.000000 22.830523
LeftHandThumb1 -26.253704 0.000000 33.147579
RightShoulder -14.922579 -6.792810 -6.579365
RightArm 1.607360 -30.555294 82.911320
RightForeArm -26.568211 0.000000 21.868474
RightHand -13.820175 -0.000000 14.199973
RightHandThumb1 -24.326973 -0.000000 -32.862282
LeftUpLeg -8.935696 -10.040736 8.088249
LeftLeg 20.260055 -0.000000 -0.000000
LeftFoot -25.740915 16.657463 -19.064293
LeftToeBase 8.485264 -0.000000 -0.000000
RightUpLeg -48.769728 15.245470 -11.887550
RightLeg 110.770589 -0.000000 -0.000000
RightFoot -10.609700 8.142692 33.659248
RightToeBase 9.014850 -0.000000 -0.000000
1345
root -1.978560 32.363200 -4.433496 -1.295865 25.549007 -14.911130
Spine 0.790845 -16.082178 7.788522
Head 16.290805 -16.241185 10.268631
LeftShoulder -12.186301 11.058340 15.341690
LeftArm 20.594971 -23.605966 -72.979693
LeftForeArm -4.070298 -0.000000 82.809339
LeftHand -8.333979 -0.000000 22.843333
LeftHandThumb1 -26.253704 0.000000 33.147579
RightShoulder -14.913979 -6.766478 -6.648713
RightArm 1.711218 -30.454249 82.761035
RightForeArm -26.230709 -0.000000 22.252476
RightHand -13.741714 -0.000000 13.667261
RightHandThumb1 -24.326973 -0.000000 -32.862282
LeftUpLeg -8.842412 -9.902929 7.769513
LeftLeg 20.120131 -0.000000 -0.000000
LeftFoot -25.826307 16.937004 -19.070149
LeftToeBase 8.453178 -0.000000 -0.000000
RightUpLeg -48.915284 14.972864 -11.560721
RightLeg 110.518944 -0.000000 -0.000000
RightFoot -11.090370 7.782676 33.583158
RightToeBase 9.356794 -0.000000 -0.000000
1346
root -1.963994 32.350129 -4.431984 -1.096673 25.151786 -14.668706
Spine 0.737950 -15.996533 7.667550
Head 16.283359 -15.851365 10.018891
LeftShoulder -12.375225 11.108242 15.067945
LeftArm 20.219230 -23.666060 -72.716727
LeftForeArm -4.223340 -0.000000 83.433075
LeftHand -8.460712 -0.000000 22.769027
LeftHandThumb1 -26.253704 0.000000 33.147579
RightShoulder -14.866184 -6.733508 -6.730906
RightArm 1.822175 -30.269972 82.578259
RightForeArm -25.950090 -0.000000 22.719069
RightHand -13.853124 0.000000 13.491847
RightHandThumb1 -24.326973 -0.000000 -32.862282
LeftUpLeg -8.752952 -9.793469 7.521462
LeftLeg 19.977119 -0.000000 -0.000000
LeftFoot -25.902050 17.345367 -18.811846
LeftToeBase 8.665724 -0.000000 -0.000000
RightUpLeg -49.027762 14.731506 -11.167796
RightLeg 110.190753 -0.000000 -0.000000
RightFoot -11.698977 7.616388 33.757555
RightToeBase 9.620700 -0.000000 -0.000000
1347
root -1.948730 32.339029 -4.429512 -0.911865 24.741357 -14.453319
Spine 0.681473 -15.858633 7.560082
Head 16.283722 -15.523429 9.840320
LeftShoulder -12.556361 11.372800 14.832420
LeftArm 20.101305 -23.715736 -72.657361
LeftForeArm -4.264373 -0.000000 84.004286
LeftHand -8.506305 -0.000000 22.567813
LeftHandThumb1 -26.253704 0.000000 33.147579
RightShoulder -14.858867 -6.705084 -6.785196
RightArm 1.938104 -30.060435 82.368169
RightForeArm -25.829775 -0.000000 23.178649
RightHand -13.875802 -0.000000 13.341475
RightHandThumb1 -24.326973 -0.000000 -32.862282
LeftUpLeg -8.662883 -9.642372 7.290637
LeftLeg 19.845721 -0.000000 -0.000000
LeftFoot -25.974537 17.646408 -18.728950
LeftToeBase 8.715908 -0.000000 -0.000000
RightUpLeg -49.101647 14.507625 -10.734731
RightLeg 109.791921 -0.000000 -0.000000
RightFoot -12.240548 7.201995 33.424588
RightToeBase 9.367003 -0.000000 -0.000000
1348
root -1.933800 32.328707 -4.426706 -0.751083 24.343791 -14.258938
Spine 0.642856 -15.792247 7.473181
Head 16.272716 -15.098621 9.724130
LeftShoulder -12.753087 11.620041 14.623116
LeftArm 19.920645 -23.771118 -72.619262
LeftForeArm -4.399471 -0.000000 84.597965
LeftHand -8.595527 0.000000 22.343276
LeftHandThumb1 -26.253704 0.000000 33.147579
RightShoulder -14.808423 -6.666981 -6.872778
RightArm 2.054903 -29.981518 82.205744
RightForeArm -25.971458 -0.000000 23.611874
RightHand -14.222055 0.000000 12.420576
RightHandThumb1 -24.326973 -0.000000 -32.862282
LeftUpLeg -8.575691 -9.498432 7.075823
LeftLeg 19.741414 -0.000000 -0.000000
LeftFoot -26.052275 17.924724 -18.707423
LeftToeBase 8.628660 -0.000000 -0.000000
RightUpLeg -49.136757 14.265080 -10.229202
RightLeg 109.369641 -0.000000 -0.000000
RightFoot -12.767934 6.749532 33.036068
RightToeBase 9.240518 -0.000000 -0.000000
1349
root -1.919783 32.317542 -4.423978 -0.615053 23.922471 -14.101911
Spine 0.622585 -15.695461 7.426691
Head 16.232751 -14.798252 9.525034
LeftShoulder -12.886572 11.707184 14.432289
LeftArm 19.530925 -23.791074 -72.453525
LeftForeArm -4.550441 -0.000000 85.249901
LeftHand -8.714560 0.000000 22.120326
LeftHandThumb1 -26.253704 0.000000 33.147579
RightShoulder -14.776143 -6.600294 -6.991651
RightArm 2.161769 -29.802162 82.051576
RightForeArm -26.045397 -0.000000 24.069792
RightHand -14.163787 -0.000000 12.137699
RightHandThumb1 -24.326973 -0.000000 -32.862282
LeftUpLeg -8.496509 -9.297739 6.892802
LeftLeg 19.680217 -0.000000 -0.000000
LeftFoot -26.148223 18.180209 -18.636964
LeftToeBase 8.608262 -0.000000 -0.000000
RightUpLeg -49.149135 14.037079 -9.658972
RightLeg 108.943057 -0.000000 -0.000000
RightFoot -13.346859 6.128966 32.592054
RightToeBase 8.873183 -0.000000 -0.000000
